<?xml version="1.0" encoding="UTF-8"?>
<svg version="1.1" xmlns="http://www.w3.org/2000/svg" width="291" height="289">
<path d="M0 0 C0.99 0 1.98 0 3 0 C3 41.58 3 83.16 3 126 C0 127 0 127 -1.98828125 126.06640625 C-2.75527344 125.57011719 -3.52226563 125.07382813 -4.3125 124.5625 C-8.5108907 121.92316082 -12.75044182 119.386044 -17.0625 116.9375 C-17.96995972 116.42038452 -17.96995972 116.42038452 -18.89575195 115.89282227 C-22.77774525 113.68396544 -26.67648491 111.50737257 -30.5859375 109.34765625 C-36.08360269 106.27857131 -41.53678517 103.1298372 -47 100 C-47.60577881 99.65912354 -48.21155762 99.31824707 -48.83569336 98.96704102 C-52.09900784 97.12555873 -55.24491937 95.21278467 -58.3125 93.0625 C-62.26111259 90.38524649 -66.33268234 88.30005287 -70.625 86.234375 C-74.02152844 84.46907404 -76.95698524 82.31533732 -80 80 C-79 77 -79 77 -75.71875 75.09765625 C-74.31765623 74.40868449 -72.91103462 73.7308765 -71.5 73.0625 C-70.77039063 72.70696045 -70.04078125 72.3514209 -69.2890625 71.98510742 C-65.55978557 70.17894627 -61.80757257 68.44814737 -58 66.8125 C-53.7194571 64.97326866 -49.8733478 62.57519581 -46 60 C-47.12383992 58.06182687 -48.24911321 56.12448482 -49.375 54.1875 C-50.00148438 53.10855469 -50.62796875 52.02960938 -51.2734375 50.91796875 C-52.46055346 48.91168907 -53.70689373 46.93965941 -55 45 C-55.125 42.3125 -55.125 42.3125 -55 40 C-54.32453125 39.79246094 -53.6490625 39.58492187 -52.953125 39.37109375 C-46.77077433 37.34912696 -46.77077433 37.34912696 -42.5625 32.6875 C-42.00791222 31.47318931 -41.48733341 30.24282911 -41 29 C-40.70480469 28.33742188 -40.40960938 27.67484375 -40.10546875 26.9921875 C-39.37353087 25.34114954 -38.68248443 23.67208685 -38 22 C-36.19140625 22.171875 -36.19140625 22.171875 -34 23 C-32.40234375 25.328125 -32.40234375 25.328125 -30.9375 28.25 C-29.06880768 31.91799023 -27.15719457 35.49215838 -25 39 C-20.79080735 32.82970623 -16.84581486 26.5223457 -12.953125 20.1484375 C-10.82038305 16.71045747 -8.58435884 13.35721388 -6.31640625 10.0078125 C-4.39898406 7.08331693 -2.71403404 4.04717163 -1 1 C-0.67 0.67 -0.34 0.34 0 0 Z " fill="#C62157" transform="translate(93,27)"/>
<path d="M0 0 C0.99 0.33 1.98 0.66 3 1 C2.73912639 6.09064288 2.47248263 11.18093787 2.20043945 16.27099609 C2.10867394 18.00333415 2.01849782 19.73575715 1.92993164 21.46826172 C1.80250139 23.95564326 1.66939562 26.44266531 1.53515625 28.9296875 C1.47727684 30.09538773 1.47727684 30.09538773 1.41822815 31.28463745 C1.11387171 36.77225659 1.11387171 36.77225659 0 39 C1.15757812 38.97679687 2.31515625 38.95359375 3.5078125 38.9296875 C5.04686851 38.91091852 6.58593155 38.89271954 8.125 38.875 C8.88554687 38.85824219 9.64609375 38.84148437 10.4296875 38.82421875 C15.03270731 38.78453754 18.66464004 39.24092423 23 41 C22.84660156 41.75023437 22.69320312 42.50046875 22.53515625 43.2734375 C21.5726401 49.58945259 21.54116117 53.27633119 25.375 58.5625 C26.02210938 59.34753906 26.66921875 60.13257813 27.3359375 60.94140625 C29 63 29 63 30 66 C29 67 29 67 26.95874023 67.11352539 C26.08419189 67.10828857 25.20964355 67.10305176 24.30859375 67.09765625 C23.36435547 67.09443359 22.42011719 67.09121094 21.44726562 67.08789062 C20.45404297 67.07951172 19.46082031 67.07113281 18.4375 67.0625 C17.44041016 67.05798828 16.44332031 67.05347656 15.41601562 67.04882812 C12.94395151 67.03700007 10.47200482 67.02051849 8 67 C12.49609126 75.52664718 17.06852601 83.99838284 21.85327148 92.3671875 C24.39574801 96.83757803 26.73286972 101.38459878 29 106 C29.66579278 107.33376992 30.33222676 108.66722053 31 110 C29.36450195 110.69018555 29.36450195 110.69018555 27 111 C24.27026367 109.80004883 24.27026367 109.80004883 21.16796875 107.95703125 C20.03939453 107.29509766 18.91082031 106.63316406 17.74804688 105.95117188 C16.5609973 105.23861535 15.3741498 104.52572209 14.1875 103.8125 C13.01304567 103.1179964 11.83792132 102.42462451 10.66210938 101.73242188 C8.41473947 100.40600037 6.17000017 99.07510926 3.92822266 97.73925781 C0.64009801 95.7862313 -2.6740756 93.88768682 -6 92 C-7.9178336 90.87699048 -9.83453963 89.75205265 -11.75 88.625 C-15.77149724 86.26861454 -19.8245491 84.0049637 -23.9375 81.8125 C-27.63232554 79.82501158 -30.73186968 77.63266053 -34 75 C-36.32671865 73.98470459 -38.6603447 72.98511802 -41 72 C-43.0065438 70.67653494 -45.00628175 69.34270821 -47 68 C-48.24071541 67.35676577 -49.49154299 66.73279186 -50.75 66.125 C-55.68711081 63.72214759 -60.31782205 60.86015395 -65 58 C-66.7699234 56.93598491 -68.54073818 55.87345099 -70.3125 54.8125 C-73.54166667 52.875 -76.77083333 50.9375 -80 49 C-79.75 47.15234375 -79.75 47.15234375 -79 45 C-77.25 43.69140625 -77.25 43.69140625 -75 42.5625 C-74.18660156 42.14097656 -73.37320313 41.71945313 -72.53515625 41.28515625 C-71.28025391 40.64900391 -71.28025391 40.64900391 -70 40 C-68.47492559 39.17445382 -66.95394295 38.34129618 -65.4375 37.5 C-64.69371094 37.0875 -63.94992188 36.675 -63.18359375 36.25 C-61.0865036 35.04951906 -59.04091675 33.79325418 -57 32.5 C-53.59969743 30.34647504 -50.12779063 28.37631959 -46.6015625 26.4375 C-38.70550024 22.07451064 -30.90006444 17.59379027 -23.25 12.8125 C-18.67850245 9.97060797 -14.07743699 7.42238451 -9.22265625 5.1015625 C-7.0895485 4.0443808 -5.09031089 2.86962714 -3.0625 1.625 C-2.051875 1.08875 -1.04125 0.5525 0 0 Z " fill="#FB70AA" transform="translate(237,49)"/>
<path d="M0 0 C0 31.02 0 62.04 0 94 C-0.99 94.495 -0.99 94.495 -2 95 C-3.6875 93.875 -5.375 92.75 -7.0625 91.625 C-8.14789063 90.90183594 -9.23328125 90.17867188 -10.3515625 89.43359375 C-12.89014406 87.74143788 -15.42618049 86.04553521 -17.9609375 84.34765625 C-18.95275024 83.68419189 -18.95275024 83.68419189 -19.96459961 83.00732422 C-21.25510512 82.14400622 -22.54500676 81.27978469 -23.83422852 80.41455078 C-27.17255631 78.18302187 -30.53445107 76.0319822 -34 74 C-36.28513859 76.28513859 -37.43216797 78.5175504 -38.9375 81.375 C-40.74764207 84.81010337 -42.5837887 87.95629502 -45 91 C-48.24571356 90.62906131 -49.72211189 90.26562834 -52.125 87.96875 C-56.08802098 85.25494215 -59.13697468 85.5462051 -63.8125 85.75 C-64.60076172 85.76804687 -65.38902344 85.78609375 -66.20117188 85.8046875 C-68.13464261 85.85155952 -70.06748285 85.9232959 -72 86 C-73 83 -73 83 -71.92578125 80.765625 C-71.39339844 79.93546875 -70.86101562 79.1053125 -70.3125 78.25 C-67.75160524 74.20848867 -65.38341968 70.17098443 -63 66 C-78.51 65.67 -94.02 65.34 -110 65 C-110 63.68 -110 62.36 -110 61 C-107.796875 59.32421875 -107.796875 59.32421875 -104.75 57.6875 C-103.64914063 57.08164063 -102.54828125 56.47578125 -101.4140625 55.8515625 C-100.28742188 55.24054688 -99.16078125 54.62953125 -98 54 C-96.0373571 52.86156409 -94.0788985 51.71587944 -92.125 50.5625 C-87.17465834 47.6737236 -82.20244541 44.82443944 -77.22241211 41.98730469 C-73.36316684 39.78629135 -69.52098577 37.55803614 -65.6875 35.3125 C-62.41589112 33.39762131 -59.13694688 31.50894024 -55.8125 29.6875 C-46.4098806 24.50160684 -37.20521973 18.94372644 -28.01538086 13.3918457 C-21.4353208 9.41729567 -14.80912395 5.57449708 -8 2 C-7.32324219 1.61714844 -6.64648438 1.23429688 -5.94921875 0.83984375 C-4 0 -4 0 0 0 Z " fill="#F54E8D" transform="translate(176,179)"/>
<path d="M0 0 C3.66317347 1.37178193 6.94720837 3.02844059 10.31640625 5.01171875 C11.32896484 5.60533203 12.34152344 6.19894531 13.38476562 6.81054688 C14.95774414 7.73963867 14.95774414 7.73963867 16.5625 8.6875 C17.58408203 9.28755859 18.60566406 9.88761719 19.65820312 10.50585938 C21.72852978 11.72193137 23.79818768 12.93914262 25.8671875 14.1574707 C33.17962882 18.45820283 40.50422465 22.73744472 47.875 26.9375 C49.06901855 27.61847532 50.26302874 28.2994653 51.45703125 28.98046875 C52.04822754 29.31739746 52.63942383 29.65432617 53.24853516 30.00146484 C56.02109609 31.58214149 58.79170942 33.16622266 61.5625 34.75 C62.69945312 35.3996875 63.83640625 36.049375 65.0078125 36.71875 C85.21484375 48.265625 85.21484375 48.265625 87.70629883 49.69042969 C89.11629007 50.49545289 90.52734968 51.2986125 91.94018555 52.09863281 C95.99481676 54.39751678 99.97687908 56.79450597 103.9375 59.25 C104.52595703 59.61351562 105.11441406 59.97703125 105.72070312 60.3515625 C107.14777958 61.23333332 108.57398482 62.1165139 110 63 C108.54679332 66.74010563 106.85797625 67.9653976 103.34375 69.8046875 C102.40273437 70.30613281 101.46171875 70.80757813 100.4921875 71.32421875 C99.50476563 71.83597656 98.51734375 72.34773438 97.5 72.875 C95.57178353 73.89108172 93.64469299 74.90930307 91.71875 75.9296875 C90.76363525 76.43556396 89.80852051 76.94144043 88.82446289 77.46264648 C84.4641475 79.83596362 80.23745002 82.41586188 76 85 C73.3598787 86.57222808 70.71160822 88.13047046 68.0625 89.6875 C67.35303223 90.10467285 66.64356445 90.5218457 65.91259766 90.95166016 C57.98697944 95.60496526 50.03617847 100.21513625 42.07348633 104.8046875 C40.7127705 105.58910581 39.35319152 106.37550016 37.99487305 107.1640625 C34.72888841 109.05109484 31.54972255 110.7091918 28 112 C27 111 27 111 26.96240234 108.39892578 C27.00316895 107.2592334 27.04393555 106.11954102 27.0859375 104.9453125 C27.12976563 103.68976563 27.17359375 102.43421875 27.21875 101.140625 C27.24453125 100.47998047 27.2703125 99.81933594 27.296875 99.13867188 C27.37332406 97.16819726 27.44067055 95.19737619 27.5078125 93.2265625 C27.78086796 85.76304656 28.32188885 78.45922263 29 71 C21.41 71 13.82 71 6 71 C6.4640625 68.3703125 6.4640625 68.3703125 6.9375 65.6875 C7.55335889 59.01569536 5.53465035 55.59351278 1.56640625 50.375 C0 48 0 48 0 44 C6.93 44 13.86 44 21 44 C17.68229351 37.15054143 14.07464999 30.52376323 10.31225586 23.91308594 C7.72957229 19.35560026 5.30734348 14.75481655 3.0703125 10.015625 C2.02307662 7.90403239 2.02307662 7.90403239 0.34765625 5.875 C-1 4 -1 4 -0.6875 1.75 C-0.460625 1.1725 -0.23375 0.595 0 0 Z " fill="#A61A49" transform="translate(18,125)"/>
<path d="M0 0 C4.55219986 0.91043997 6.85827015 1.84829723 10.75390625 4.1328125 C11.85669922 4.77476562 12.95949219 5.41671875 14.09570312 6.078125 C15.25140951 6.76023468 16.40700815 7.44252696 17.5625 8.125 C18.67947266 8.77726563 19.79644531 9.42953125 20.94726562 10.1015625 C23.19985778 11.41785983 25.45066541 12.73721564 27.69970703 14.05957031 C32.79177293 17.05348508 37.89669886 20.02529206 43 23 C45.0000414 24.16659569 47.00004125 25.33326263 49 26.5 C49.99 27.0775 50.98 27.655 52 28.25 C61 33.5 61 33.5 63.96484375 35.23046875 C66.08091214 36.46416113 68.19819504 37.69577168 70.31640625 38.92578125 C71.38761719 39.54839844 72.45882812 40.17101562 73.5625 40.8125 C74.53316406 41.37582031 75.50382812 41.93914062 76.50390625 42.51953125 C78.3690035 43.62574699 80.19571644 44.79714429 82 46 C82 46.99 82 47.98 82 49 C81.030625 49.4846875 80.06125 49.969375 79.0625 50.46875 C78.42199707 50.78908203 77.78149414 51.10941406 77.12158203 51.43945312 C75.69573501 52.15221256 74.26962391 52.86444394 72.84326172 53.57617188 C69.03763081 55.4760657 65.2369106 57.38473547 61.4453125 59.3125 C60.72085938 59.67923828 59.99640625 60.04597656 59.25 60.42382812 C57.84993712 61.13286732 56.45145303 61.84503397 55.0546875 62.56054688 C50.22486481 65 50.22486481 65 48 65 C49.10264846 67.06331206 50.20718366 69.12561589 51.3125 71.1875 C51.92738281 72.33605469 52.54226562 73.48460937 53.17578125 74.66796875 C54.90536431 77.94491731 54.90536431 77.94491731 56.79296875 80.67578125 C58 83 58 83 57.98828125 85.171875 C56.57400009 87.78801565 54.92355912 88.17640725 52.1875 89.25 C46.63433271 91.81300029 45.11060717 94.46105207 43 100 C42.02065076 101.67888441 41.03013277 103.35178756 40 105 C35.96176774 103.51727973 34.8308235 101.39145156 32.9375 97.625 C31.17914525 94.16425935 29.42550178 91.03727522 27 88 C25.24561345 90.74722267 23.49699015 93.49806844 21.75 96.25 C21.21511963 97.09087158 20.68023926 97.93174316 20.12915039 98.7980957 C17.22145793 103.39461873 14.37963058 108.01787863 11.63671875 112.71484375 C11.10014648 113.63040039 10.56357422 114.54595703 10.01074219 115.48925781 C8.97195385 117.27086685 7.94244202 119.05792109 6.92285156 120.85058594 C6.45202148 121.65657227 5.98119141 122.46255859 5.49609375 123.29296875 C5.08544678 124.0099292 4.6747998 124.72688965 4.25170898 125.46557617 C3.63211304 126.22511597 3.63211304 126.22511597 3 127 C2.01 127 1.02 127 0 127 C0 85.09 0 43.18 0 0 Z " fill="#FC6CAC" transform="translate(189,132)"/>
<path d="M0 0 C3.45861534 0.78206241 5.82809847 1.98915799 8.8125 3.9375 C9.76898438 4.55882812 10.72546875 5.18015625 11.7109375 5.8203125 C14.11569639 7.41396507 16.51677543 9.01237271 18.9140625 10.6171875 C19.58074951 11.06328369 20.24743652 11.50937988 20.93432617 11.96899414 C22.24894197 12.85069197 23.56167435 13.73520583 24.87231445 14.62280273 C27.834782 16.61727705 30.74260199 18.52233323 34 20 C34.37511719 19.28714844 34.75023437 18.57429688 35.13671875 17.83984375 C38.11587333 12.26424715 41.18876548 7.04428098 45 2 C47.94438506 2.98146169 49.67454773 3.58692596 51.625 6.0625 C55.16460826 8.95007516 58.3306523 8.44055231 62.75 8.25 C63.54277344 8.23195313 64.33554688 8.21390625 65.15234375 8.1953125 C67.10208348 8.14833082 69.05119878 8.07659044 71 8 C72 11 72 11 71.14453125 13.015625 C70.70496094 13.75296875 70.26539063 14.4903125 69.8125 15.25 C69.38582031 15.97703125 68.95914063 16.7040625 68.51953125 17.453125 C68.01808594 18.29359375 67.51664062 19.1340625 67 20 C65.65958505 22.32934603 64.32999562 24.66467578 63 27 C78.65827155 28.42877308 94.28583892 29.45461574 110 30 C108.88112557 33.35662328 108.51141168 33.5983249 105.625 35.3125 C104.89152344 35.74949219 104.15804687 36.18648437 103.40234375 36.63671875 C100.08519574 38.51913282 96.73247497 40.33131905 93.375 42.140625 C89.10946515 44.49061874 84.89840763 46.92880195 80.6875 49.375 C79.86805908 49.85098633 79.04861816 50.32697266 78.2043457 50.81738281 C76.57322917 51.76495155 74.94212545 52.71254234 73.31103516 53.66015625 C66.32587526 57.70986653 59.32329878 61.73098883 52.25 65.625 C49.30825986 67.24969955 46.41722072 68.93854533 43.54296875 70.6796875 C37.42538729 74.36057658 31.24746407 77.93382969 25.0625 81.5 C23.95970703 82.13808594 22.85691406 82.77617188 21.72070312 83.43359375 C14.86607416 87.388654 7.96726194 91.24685175 1 95 C-0.87788672 93.12211328 -0.12008587 90.40834091 -0.12442017 87.91021729 C-0.12082489 87.03484314 -0.11722961 86.15946899 -0.11352539 85.25756836 C-0.11367142 84.3405867 -0.11381744 83.42360504 -0.1139679 82.47883606 C-0.1132684 79.43248164 -0.10547428 76.38618755 -0.09765625 73.33984375 C-0.0957922 71.23377007 -0.09436824 69.12769597 -0.09336853 67.0216217 C-0.08954231 61.46657117 -0.07971114 55.91154659 -0.06866455 50.35650635 C-0.05845267 44.6927526 -0.05387139 39.02899467 -0.04882812 33.36523438 C-0.03808896 22.24347815 -0.0210113 11.12174123 0 0 Z " fill="#EF85A9" transform="translate(109,13)"/>
<path d="M0 0 C1 1 1 1 1 6 C8.92 6 16.84 6 25 6 C25 9.96 25 13.92 25 18 C26.35646189 21.28828495 26.35646189 21.28828495 28.5 23.625 C32 27.91666667 32 27.91666667 32 30 C24.74 30 17.48 30 10 30 C13.43109807 37.80843626 13.43109807 37.80843626 18.5 44.5 C21.8330621 47.8330621 23.42948782 51.56171869 25.44921875 55.7890625 C27.39391619 59.81561488 29.53804981 63.71389642 31.703125 67.625 C32.85193551 69.72884575 33.94410083 71.84835641 35 74 C32.30635201 75.05621 31.25559 75.10377035 28.52734375 73.99609375 C23.12254605 70.74343269 20.78945536 68.69513802 18 63 C12.81302625 58.65543622 6.93144131 55.22360941 1 52 C1 51.34 1 50.68 1 50 C0.46375 49.773125 -0.0725 49.54625 -0.625 49.3125 C-3 48 -3 48 -6.0625 45.4375 C-8.80205688 42.86462201 -8.80205688 42.86462201 -12 42 C-12 41.34 -12 40.68 -12 40 C-12.99 39.67 -13.98 39.34 -15 39 C-15.53625 38.443125 -16.0725 37.88625 -16.625 37.3125 C-19.39528338 34.61511881 -22.38170514 32.68810211 -25.6171875 30.58984375 C-28.61074021 28.59250612 -31.44229926 26.41869132 -34.2734375 24.19921875 C-36.10049129 22.81013271 -36.10049129 22.81013271 -39 22 C-40.66666667 20.33333333 -42.33333333 18.66666667 -44 17 C-46.08039455 15.43085553 -48.18889784 13.91749586 -50.328125 12.4296875 C-52 11 -52 11 -53 8 C-48.9375 7.1875 -44.875 6.375 -40.8125 5.5625 C-39.66201172 5.33240234 -38.51152344 5.10230469 -37.32617188 4.86523438 C-35.17163086 4.43432617 -33.01708984 4.00341797 -30.86254883 3.57250977 C-29.02034947 3.20406989 -27.17961343 2.82819484 -25.34082031 2.44311523 C-21.03420603 1.62787692 -16.64633305 1.54236355 -12.27734375 1.28125 C-8.03863257 0.91749886 -4.28731081 -0.23174653 0 0 Z " fill="#FC2C80" transform="translate(233,85)"/>
<path d="M0 0 C2.94438506 0.98146169 4.67454773 1.58692596 6.625 4.0625 C10.16460826 6.95007516 13.3306523 6.44055231 17.75 6.25 C18.54277344 6.23195313 19.33554688 6.21390625 20.15234375 6.1953125 C22.10208348 6.14833082 24.05119878 6.07659044 26 6 C26.495 7.485 26.495 7.485 27 9 C25.27318031 12.00594538 23.57476446 14.47911971 21 16.8125 C18.94390432 19.06135465 18.06858582 20.85914508 16.875 23.63671875 C16.34519531 24.86007935 16.34519531 24.86007935 15.8046875 26.1081543 C15.53914063 26.73246338 15.27359375 27.35677246 15 28 C16.21429688 27.98839844 17.42859375 27.97679688 18.6796875 27.96484375 C33.14127738 27.87335994 47.55405234 28.35421753 62 29 C62 29.33 62 29.66 62 30 C58.04 30.33 54.08 30.66 50 31 C50.33 31.33 50.66 31.66 51 32 C50 35 50 35 46.625 36.6875 C43 38 43 38 40 38 C40 38.66 40 39.32 40 40 C38.87980469 40.40992188 37.75960937 40.81984375 36.60546875 41.2421875 C35.132737 41.78625401 33.66008489 42.33053611 32.1875 42.875 C31.44951172 43.14441406 30.71152344 43.41382813 29.95117188 43.69140625 C29.23896484 43.95566406 28.52675781 44.21992187 27.79296875 44.4921875 C27.1383667 44.73308105 26.48376465 44.97397461 25.80932617 45.22216797 C23.72104063 46.05526168 23.72104063 46.05526168 21 48 C19.68 48 18.36 48 17 48 C17 48.66 17 49.32 17 50 C16.21496094 50.25394531 15.42992187 50.50789063 14.62109375 50.76953125 C7.68752177 53.01680847 7.68752177 53.01680847 0.9375 55.75 C-2 57 -2 57 -5 57 C-5 57.66 -5 58.32 -5 59 C-6.89564426 59.79211929 -8.79152371 60.58367576 -10.6875 61.375 C-11.74324219 61.81585938 -12.79898438 62.25671875 -13.88671875 62.7109375 C-16.58365425 63.82761092 -19.28926902 64.91745365 -22 66 C-22.84820312 66.35320312 -23.69640625 66.70640625 -24.5703125 67.0703125 C-25.41335937 67.41835937 -26.25640625 67.76640625 -27.125 68.125 C-27.97320312 68.47820312 -28.82140625 68.83140625 -29.6953125 69.1953125 C-32 70 -32 70 -35 70 C-34.49123687 65.92989498 -33.45513872 62.40676515 -31.94921875 58.6015625 C-30.67579136 55.11142817 -29.63429941 51.55570369 -28.5625 48 C-27.25803355 43.6997284 -25.95349718 39.53293134 -23.8125 35.5625 C-21.98293499 31.96645843 -21.17483931 28.91616542 -20.4921875 24.98046875 C-20 23 -20 23 -18 20 C-16.0546875 19.48828125 -16.0546875 19.48828125 -13.875 19.3125 C-12.59625 19.209375 -11.3175 19.10625 -10 19 C-9.78085938 18.29875 -9.56171875 17.5975 -9.3359375 16.875 C-7.14233893 10.31203841 -4.51255335 5.24960373 0 0 Z " fill="#EB618F" transform="translate(154,15)"/>
<path d="M0 0 C3.83809872 1.5078245 5.56524983 3.73168933 8 7 C12.67002281 12.85263487 17.28644303 18.56044263 22.78515625 23.66015625 C24 25 24 25 24 27 C24.66 27 25.32 27 26 27 C26.495 28.485 26.495 28.485 27 30 C29.51123564 32.65074873 32.14333657 35.1337808 34.8125 37.625 C37 40 37 40 37 43 C35.68 43.66 34.36 44.32 33 45 C33 46.65 33 48.3 33 50 C33.66 50 34.32 50 35 50 C36.7265625 52.484375 36.7265625 52.484375 38.625 55.75 C39.25664062 56.81734375 39.88828125 57.8846875 40.5390625 58.984375 C42 62 42 62 42 66 C37.05 66.99 37.05 66.99 32 68 C31.7525 68.825 31.505 69.65 31.25 70.5 C29.81295189 74.52373471 27.97645485 78.21979024 26 82 C22.56500392 80.85500131 22.38336181 80.43024564 20.73828125 77.40234375 C20.34189453 76.68369141 19.94550781 75.96503906 19.53710938 75.22460938 C18.93092773 74.09249023 18.93092773 74.09249023 18.3125 72.9375 C17.89677734 72.17888672 17.48105469 71.42027344 17.05273438 70.63867188 C16.02678918 68.76366859 15.01229756 66.88240657 14 65 C13.34 65 12.68 65 12 65 C11.57332031 65.76699219 11.14664063 66.53398437 10.70703125 67.32421875 C4.89625381 77.63984633 -1.31682991 87.68892618 -7.59301758 97.72680664 C-9.08520678 100.13766447 -10.5464083 102.56571056 -12 105 C-13.00179271 101.99462188 -13.02280232 100.65208484 -12.6953125 97.5859375 C-12.60636719 96.74289063 -12.51742187 95.89984375 -12.42578125 95.03125 C-12.32652344 94.1546875 -12.22726563 93.278125 -12.125 92.375 C-12.03347656 91.49070312 -11.94195312 90.60640625 -11.84765625 89.6953125 C-11.13305454 83.13305454 -11.13305454 83.13305454 -10 82 C-9.83434558 79.89864306 -9.71999555 77.7932346 -9.625 75.6875 C-9.28122726 69.41460446 -8.53232922 63.26809642 -7.5625 57.0625 C-7.43004883 56.21228271 -7.29759766 55.36206543 -7.16113281 54.48608398 C-6.89710076 52.7935998 -6.6329428 51.10113526 -6.36865234 49.40869141 C-5.02222737 40.61145379 -3.99414317 31.82870346 -3.5625 22.9375 C-3.142097 15.08219203 -1.75139286 7.66647441 0 0 Z " fill="#FD3184" transform="translate(203,152)"/>
<path d="M0 0 C0.99 0 1.98 0 3 0 C3 41.58 3 83.16 3 126 C0 127 0 127 -1.98828125 126.06640625 C-2.75527344 125.57011719 -3.52226563 125.07382813 -4.3125 124.5625 C-8.5108907 121.92316082 -12.75044182 119.386044 -17.0625 116.9375 C-17.96995972 116.42038452 -17.96995972 116.42038452 -18.89575195 115.89282227 C-22.77774525 113.68396544 -26.67648491 111.50737257 -30.5859375 109.34765625 C-36.08360269 106.27857131 -41.53678517 103.1298372 -47 100 C-47.60577881 99.65912354 -48.21155762 99.31824707 -48.83569336 98.96704102 C-52.09900784 97.12555873 -55.24491937 95.21278467 -58.3125 93.0625 C-62.26111259 90.38524649 -66.33268234 88.30005287 -70.625 86.234375 C-74.02152844 84.46907404 -76.95698524 82.31533732 -80 80 C-79 77 -79 77 -75.71875 75.09765625 C-74.31765623 74.40868449 -72.91103462 73.7308765 -71.5 73.0625 C-70.77039063 72.70696045 -70.04078125 72.3514209 -69.2890625 71.98510742 C-65.55978557 70.17894627 -61.80757257 68.44814737 -58 66.8125 C-53.7194571 64.97326866 -49.8733478 62.57519581 -46 60 C-46.66 59.01 -47.32 58.02 -48 57 C-47.67 56.01 -47.34 55.02 -47 54 C-44 58.625 -44 58.625 -44 62 C-45.31337396 63.0260734 -46.64664105 64.02727325 -48 65 C-48 65.66 -48 66.32 -48 67 C-47.154375 67.66 -46.30875 68.32 -45.4375 69 C-41.63184669 72.00303922 -39.24177746 75.7626079 -36.61328125 79.79296875 C-35.02448945 82.23239457 -35.02448945 82.23239457 -32 84 C-31.67 84.99 -31.34 85.98 -31 87 C-30.154375 87.845625 -29.30875 88.69125 -28.4375 89.5625 C-27.633125 90.366875 -26.82875 91.17125 -26 92 C-26 92.66 -26 93.32 -26 94 C-25.34 94 -24.68 94 -24 94 C-22.65576661 95.65788785 -21.32381517 97.32576317 -20 99 C-19.29875 99.515625 -18.5975 100.03125 -17.875 100.5625 C-15.76888609 102.17718733 -15.00406019 103.57352121 -14 106 C-13.34 106 -12.68 106 -12 106 C-10.88515942 102.65547826 -10.58681798 99.65547227 -10.24609375 96.14453125 C-10.18092056 95.48289474 -10.11574738 94.82125824 -10.04859924 94.13957214 C-9.84163855 92.03085167 -9.63950857 89.92170006 -9.4375 87.8125 C-9.29784445 86.38082828 -9.15787418 84.94918722 -9.01757812 83.51757812 C-8.67473584 80.01206689 -8.33622378 76.50615293 -8 73 C-7.34 73 -6.68 73 -6 73 C-6.01015137 72.4332959 -6.02030273 71.8665918 -6.03076172 71.28271484 C-6.10168484 64.02973963 -5.66808032 56.85526335 -5.125 49.625 C-5.04636719 48.48289063 -4.96773438 47.34078125 -4.88671875 46.1640625 C-4.33405215 38.68180701 -3.35433085 31.37742968 -2 24 C-1.79117188 22.80503906 -1.58234375 21.61007813 -1.3671875 20.37890625 C-1.0358167 18.4827289 -0.70244495 16.58690027 -0.3671875 14.69140625 C-0.01208237 12.08856117 0.06664502 9.62295751 0 7 C-1.32 7.33 -2.64 7.66 -4 8 C-3.40353695 4.65980694 -2.31705841 2.49529367 0 0 Z " fill="#ED2367" transform="translate(93,27)"/>
<path d="M0 0 C4.55219986 0.91043997 6.85827015 1.84829723 10.75390625 4.1328125 C11.85669922 4.77476562 12.95949219 5.41671875 14.09570312 6.078125 C15.25140951 6.76023468 16.40700815 7.44252696 17.5625 8.125 C18.67947266 8.77726563 19.79644531 9.42953125 20.94726562 10.1015625 C23.18634704 11.40996486 25.42286302 12.72276778 27.65673828 14.04003906 C29.92423708 15.36934244 32.19498492 16.68518762 34.47998047 17.98339844 C35.56811035 18.60504883 36.65624023 19.22669922 37.77734375 19.8671875 C38.75823975 20.4226123 39.73913574 20.97803711 40.74975586 21.55029297 C43 23 43 23 44 25 C39.95592234 23.75350732 36.40683788 22.26906252 32.734375 20.171875 C31.76113281 19.61886719 30.78789062 19.06585938 29.78515625 18.49609375 C28.28275391 17.63177734 28.28275391 17.63177734 26.75 16.75 C25.76386719 16.18925781 24.77773437 15.62851563 23.76171875 15.05078125 C18.18165562 11.86742508 12.650733 8.61388671 7.16503906 5.27050781 C5.15871259 4.09313716 3.08068211 3.04034106 1 2 C1.33 42.26 1.66 82.52 2 124 C4.97 118.72 7.94 113.44 11 108 C13.09789987 104.57825297 15.20120533 101.18333093 17.375 97.8125 C18.38326369 96.23596555 19.39109007 94.65915131 20.3984375 93.08203125 C21.0785791 92.01976318 21.0785791 92.01976318 21.77246094 90.93603516 C23.22307199 88.64817802 24.62488334 86.33395651 26 84 C29.43070283 85.14356761 29.58613413 85.52928881 31.19140625 88.5625 C31.57876953 89.27664062 31.96613281 89.99078125 32.36523438 90.7265625 C32.76033203 91.47679687 33.15542969 92.22703125 33.5625 93 C34.35050962 94.48181453 35.14325637 95.9611226 35.94140625 97.4375 C36.46263062 98.42556641 36.46263062 98.42556641 36.99438477 99.43359375 C37.92385137 101.17487035 37.92385137 101.17487035 40 102 C40.2475 101.175 40.495 100.35 40.75 99.5 C41.1625 98.345 41.575 97.19 42 96 C42.22171875 95.30390625 42.4434375 94.6078125 42.671875 93.890625 C43.57237998 91.56290458 44.35486143 89.88758004 46 88 C49.29383302 86.73632821 52.49341601 86.26767817 56 86 C55.01 83.03 54.02 80.06 53 77 C56.3222714 79.89359122 57.32084333 81.68914241 58 86 C57.25234375 86.3403125 56.5046875 86.680625 55.734375 87.03125 C48.87373171 90.40769225 45.63672805 92.86618578 43 100 C42.02065076 101.67888441 41.03013277 103.35178756 40 105 C35.96176774 103.51727973 34.8308235 101.39145156 32.9375 97.625 C31.17914525 94.16425935 29.42550178 91.03727522 27 88 C25.24561345 90.74722267 23.49699015 93.49806844 21.75 96.25 C21.21511963 97.09087158 20.68023926 97.93174316 20.12915039 98.7980957 C17.22145793 103.39461873 14.37963058 108.01787863 11.63671875 112.71484375 C11.10014648 113.63040039 10.56357422 114.54595703 10.01074219 115.48925781 C8.97195385 117.27086685 7.94244202 119.05792109 6.92285156 120.85058594 C6.45202148 121.65657227 5.98119141 122.46255859 5.49609375 123.29296875 C5.08544678 124.0099292 4.6747998 124.72688965 4.25170898 125.46557617 C3.63211304 126.22511597 3.63211304 126.22511597 3 127 C2.01 127 1.02 127 0 127 C0 85.09 0 43.18 0 0 Z " fill="#F2D3E0" transform="translate(189,132)"/>
<path d="M0 0 C0.99 0 1.98 0 3 0 C3 41.58 3 83.16 3 126 C0 127 0 127 -1.82421875 126.22265625 C-3.54947917 125.1484375 -5.27473958 124.07421875 -7 123 C-5.02 122.505 -5.02 122.505 -3 122 C-3 122.66 -3 123.32 -3 124 C-1.68 124.33 -0.36 124.66 1 125 C0.67 86.06 0.34 47.12 0 7 C-1.32 7.33 -2.64 7.66 -4 8 C-3.40353695 4.65980694 -2.31705841 2.49529367 0 0 Z " fill="#F4D7E0" transform="translate(93,27)"/>
<path d="M0 0 C3.66317347 1.37178193 6.94720837 3.02844059 10.31640625 5.01171875 C11.32896484 5.60533203 12.34152344 6.19894531 13.38476562 6.81054688 C14.95774414 7.73963867 14.95774414 7.73963867 16.5625 8.6875 C17.58408203 9.28755859 18.60566406 9.88761719 19.65820312 10.50585938 C21.72852978 11.72193137 23.79818768 12.93914262 25.8671875 14.1574707 C33.17962882 18.45820283 40.50422465 22.73744472 47.875 26.9375 C49.06901855 27.61847532 50.26302874 28.2994653 51.45703125 28.98046875 C52.04822754 29.31739746 52.63942383 29.65432617 53.24853516 30.00146484 C56.02109609 31.58214149 58.79170942 33.16622266 61.5625 34.75 C62.69945312 35.3996875 63.83640625 36.049375 65.0078125 36.71875 C85.21484375 48.265625 85.21484375 48.265625 87.70629883 49.69042969 C89.11629007 50.49545289 90.52734968 51.2986125 91.94018555 52.09863281 C95.99481676 54.39751678 99.97687908 56.79450597 103.9375 59.25 C104.52595703 59.61351562 105.11441406 59.97703125 105.72070312 60.3515625 C107.14777958 61.23333332 108.57398482 62.1165139 110 63 C108.55626555 66.6618088 106.91869078 67.95939199 103.5 69.83203125 C102.613125 70.31994141 101.72625 70.80785156 100.8125 71.31054688 C99.884375 71.80619141 98.95625 72.30183594 98 72.8125 C96.6078125 73.5849707 96.6078125 73.5849707 95.1875 74.37304688 C90.06905798 77.15173596 90.06905798 77.15173596 88 78 C87.34 77.67 86.68 77.34 86 77 C99.6332574 68.55353075 99.6332574 68.55353075 106 65 C106 64.34 106 63.68 106 63 C105.36835937 62.64921387 104.73671875 62.29842773 104.0859375 61.93701172 C91.15697348 54.7483028 78.29914421 47.46669766 65.54199219 39.9765625 C59.65437032 36.52673854 53.73277964 33.15673843 47.75 29.875 C41.26093428 26.31514923 34.89626926 22.57911834 28.5625 18.75 C17.40707068 10.86636015 17.40707068 10.86636015 5 7 C5.33 8.98 5.66 10.96 6 13 C3.0698415 10.36285735 0.9529579 7.41767633 -1 4 C-0.75 1.625 -0.75 1.625 0 0 Z " fill="#E5CFD6" transform="translate(18,125)"/>
<path d="M0 0 C1 3 1 3 0.22265625 4.82421875 C-0.8515625 6.54947917 -1.92578125 8.27473958 -3 10 C12.65827155 11.42877308 28.28583892 12.45461574 44 13 C42.88112557 16.35662328 42.51141168 16.5983249 39.625 18.3125 C38.52478516 18.96798828 38.52478516 18.96798828 37.40234375 19.63671875 C34.08519574 21.51913282 30.73247497 23.33131905 27.375 25.140625 C23.10946515 27.49061874 18.89840763 29.92880195 14.6875 32.375 C13.86805908 32.85098633 13.04861816 33.32697266 12.2043457 33.81738281 C10.57322917 34.76495155 8.94212545 35.71254234 7.31103516 36.66015625 C2.89916051 39.21798089 -1.52645879 41.75112121 -5.9609375 44.26953125 C-7.91065043 45.37971483 -9.8540153 46.50116584 -11.7890625 47.63671875 C-12.60117188 48.10722656 -13.41328125 48.57773438 -14.25 49.0625 C-14.93578125 49.46597656 -15.6215625 49.86945313 -16.328125 50.28515625 C-16.87984375 50.52105469 -17.4315625 50.75695312 -18 51 C-18.66 50.67 -19.32 50.34 -20 50 C-19.38253906 49.63648438 -18.76507813 49.27296875 -18.12890625 48.8984375 C-13.83717769 46.35083607 -9.61105913 43.76890924 -5.5 40.9375 C6.24917546 33 6.24917546 33 11 33 C11.268125 32.21625 11.53625 31.4325 11.8125 30.625 C13 28 13 28 16 26 C17.670625 25.7834375 17.670625 25.7834375 19.375 25.5625 C23.01133313 24.99824141 25.01723048 24.07889997 28 22 C27.505 21.01 27.505 21.01 27 20 C27.66 19.34 28.32 18.68 29 18 C28.34 17.67 27.68 17.34 27 17 C27.66 16.34 28.32 15.68 29 15 C17.45 14.34 5.9 13.68 -6 13 C-5.15071984 8.75359922 -4.67656891 7.07480937 -2.4375 3.6875 C-1.98246094 2.99011719 -1.52742188 2.29273438 -1.05859375 1.57421875 C-0.70925781 1.05472656 -0.35992187 0.53523438 0 0 Z " fill="#EC6F9C" transform="translate(175,30)"/>
<path d="M0 0 C1.72827926 1.57116296 2.90634146 2.79261323 3.875 4.9375 C4.91785111 7.2335765 4.91785111 7.2335765 7.5625 8.6875 C10 11 10 11 11 20 C3.74 20 -3.52 20 -11 20 C-9.659375 21.918125 -8.31875 23.83625 -6.9375 25.8125 C-3.92829977 30.40017261 -2.41848182 33.65926 -3 39.3125 C-3.33 40.859375 -3.66 42.40625 -4 44 C3.26 44 10.52 44 18 44 C18 56.375 18 56.375 17.5625 62.19921875 C17.47226562 63.42705078 17.38203125 64.65488281 17.2890625 65.91992188 C17.19367187 67.16322266 17.09828125 68.40652344 17 69.6875 C16.85691406 71.61625977 16.85691406 71.61625977 16.7109375 73.58398438 C16.47755759 76.7229442 16.24050669 79.86157958 16 83 C17.423125 82.2265625 17.423125 82.2265625 18.875 81.4375 C19.90625 80.963125 20.9375 80.48875 22 80 C22.99 80.495 22.99 80.495 24 81 C22.90554162 81.86657116 21.79902219 82.71792724 20.6875 83.5625 C20.07261719 84.03816406 19.45773438 84.51382813 18.82421875 85.00390625 C18.22222656 85.33261719 17.62023437 85.66132813 17 86 C15.515 85.505 15.515 85.505 14 85 C14.11991829 81.07122996 14.24423665 77.14262402 14.37231445 73.21411133 C14.43598477 71.23460818 14.49635298 69.25499969 14.55664062 67.27539062 C14.59853516 66.00244141 14.64042969 64.72949219 14.68359375 63.41796875 C14.72025146 62.26063232 14.75690918 61.1032959 14.79467773 59.91088867 C15.05611017 54.93123808 15.54854273 49.96602993 16 45 C8.41 45 0.82 45 -7 45 C-6.690625 43.246875 -6.38125 41.49375 -6.0625 39.6875 C-5.44664111 33.01569536 -7.46534965 29.59351278 -11.43359375 24.375 C-13 22 -13 22 -13 18 C-6.07 18 0.86 18 8 18 C4.79638617 11.41926601 4.79638617 11.41926601 1.1875 5.0625 C0 3 0 3 0 0 Z " fill="#DBBBC6" transform="translate(31,151)"/>
<path d="M0 0 C0 31.02 0 62.04 0 94 C-0.99 94.495 -0.99 94.495 -2 95 C-4.31 93.35 -6.62 91.7 -9 90 C-5 89 -5 89 -3 90 C-2.67 60.96 -2.34 31.92 -2 2 C-5.96 3.98 -9.92 5.96 -14 8 C-14.66 7.67 -15.32 7.34 -16 7 C-14.0898586 5.82268014 -12.17162056 4.65848895 -10.25 3.5 C-9.18265625 2.8503125 -8.1153125 2.200625 -7.015625 1.53125 C-4 0 -4 0 0 0 Z " fill="#F1CFDB" transform="translate(176,179)"/>
<path d="M0 0 C3.45861534 0.78206241 5.82809847 1.98915799 8.8125 3.9375 C9.76898438 4.55882812 10.72546875 5.18015625 11.7109375 5.8203125 C14.11569639 7.41396507 16.51677543 9.01237271 18.9140625 10.6171875 C19.58074951 11.06328369 20.24743652 11.50937988 20.93432617 11.96899414 C22.24894197 12.85069197 23.56167435 13.73520583 24.87231445 14.62280273 C27.834782 16.61727705 30.74260199 18.52233323 34 20 C34.99 19.01 35.98 18.02 37 17 C36.34 18.65 35.68 20.3 35 22 C23.47288304 19.96903177 10.53949348 7.87090177 2 2 C2 31.7 2 61.4 2 92 C2.99 92.33 3.98 92.66 5 93 C3.02 93.99 3.02 93.99 1 95 C-0.87788672 93.12211328 -0.12008587 90.40834091 -0.12442017 87.91021729 C-0.12082489 87.03484314 -0.11722961 86.15946899 -0.11352539 85.25756836 C-0.11367142 84.3405867 -0.11381744 83.42360504 -0.1139679 82.47883606 C-0.1132684 79.43248164 -0.10547428 76.38618755 -0.09765625 73.33984375 C-0.0957922 71.23377007 -0.09436824 69.12769597 -0.09336853 67.0216217 C-0.08954231 61.46657117 -0.07971114 55.91154659 -0.06866455 50.35650635 C-0.05845267 44.6927526 -0.05387139 39.02899467 -0.04882812 33.36523438 C-0.03808896 22.24347815 -0.0210113 11.12174123 0 0 Z " fill="#E9D4DC" transform="translate(109,13)"/>
<path d="M0 0 C0.66 0.33 1.32 0.66 2 1 C1.01 1.33 0.02 1.66 -1 2 C-1.2475 2.639375 -1.495 3.27875 -1.75 3.9375 C-3 6 -3 6 -6.5 6.875 C-7.655 7.24625 -8.81 7.6175 -10 8 C-10.2475 8.94875 -10.495 9.8975 -10.75 10.875 C-12 14 -12 14 -14.37890625 15.140625 C-16.34719812 15.80109045 -18.32277046 16.44021494 -20.3046875 17.05859375 C-23.45283659 18.15816467 -25.51146848 19.81310866 -28 22 C-30.0625 22.875 -30.0625 22.875 -32 23 C-34.25 22.0625 -34.25 22.0625 -36 21 C-31.17020571 17.65629626 -26.15539182 14.80968854 -21 12 C-19.56140013 11.21033376 -18.12389903 10.41866251 -16.6875 9.625 C-15.95789063 9.2228125 -15.22828125 8.820625 -14.4765625 8.40625 C-12.58046304 7.32960046 -10.70362138 6.2189719 -8.8359375 5.09375 C-7.21558594 4.11921875 -7.21558594 4.11921875 -5.5625 3.125 C-4.04849609 2.20074219 -4.04849609 2.20074219 -2.50390625 1.2578125 C-1.67761719 0.84273437 -0.85132813 0.42765625 0 0 Z " fill="#E76591" transform="translate(137,199)"/>
<path d="M0 0 C3.66317347 1.37178193 6.94720837 3.02844059 10.31640625 5.01171875 C11.32896484 5.60533203 12.34152344 6.19894531 13.38476562 6.81054688 C14.95774414 7.73963867 14.95774414 7.73963867 16.5625 8.6875 C17.58408203 9.28755859 18.60566406 9.88761719 19.65820312 10.50585938 C21.72367696 11.71908091 23.78829248 12.93376487 25.85205078 14.14990234 C30.06521799 16.62604482 34.29157936 19.07929974 38.51928711 21.53051758 C40.37958668 22.63249013 42.20095063 23.80063376 44 25 C43.67 25.66 43.34 26.32 43 27 C27.53528318 18.36585289 27.53528318 18.36585289 21.5625 14.75 C18.41241837 12.84505199 15.25570597 10.95699958 12.0625 9.125 C11.35222656 8.71507812 10.64195313 8.30515625 9.91015625 7.8828125 C7.89684476 6.7902355 7.89684476 6.7902355 5 7 C5.33 8.98 5.66 10.96 6 13 C3.0698415 10.36285735 0.9529579 7.41767633 -1 4 C-0.75 1.625 -0.75 1.625 0 0 Z " fill="#E7D2D9" transform="translate(18,125)"/>
<path d="M0 0 C0.66 0.33 1.32 0.66 2 1 C0.71186658 1.83878455 -0.58063256 2.67086783 -1.875 3.5 C-2.59429687 3.9640625 -3.31359375 4.428125 -4.0546875 4.90625 C-6 6 -6 6 -8 6 C-8.33 7.65 -8.66 9.3 -9 11 C-9.66 11 -10.32 11 -11 11 C-11.33 11.99 -11.66 12.98 -12 14 C-12.56203125 13.80535156 -13.1240625 13.61070313 -13.703125 13.41015625 C-16.52615562 12.90604364 -18.07636135 13.45454461 -20.75 14.4375 C-21.54921875 14.72496094 -22.3484375 15.01242188 -23.171875 15.30859375 C-23.77515625 15.53675781 -24.3784375 15.76492187 -25 16 C-25.33 17.65 -25.66 19.3 -26 21 C-27.4117783 21.53394179 -28.82970244 22.05165104 -30.25 22.5625 C-31.03890625 22.85253906 -31.8278125 23.14257812 -32.640625 23.44140625 C-35.19103452 24.04522837 -36.55322229 23.8473932 -39 23 C-33.98638068 19.55091437 -28.93776424 16.32219974 -23.58984375 13.41796875 C-20.32801605 11.63208119 -17.10135541 9.78637272 -13.875 7.9375 C-12.73804688 7.28652344 -11.60109375 6.63554688 -10.4296875 5.96484375 C-8.63684893 4.93773919 -6.84610964 3.9059646 -5.08300781 2.82861328 C-3.42210025 1.82803033 -1.71372921 0.90714517 0 0 Z " fill="#F6BAD3" transform="translate(214,62)"/>
<path d="M0 0 C0.99 0.33 1.98 0.66 3 1 C2.0409375 1.433125 2.0409375 1.433125 1.0625 1.875 C-1.15206079 2.82823451 -1.15206079 2.82823451 -2 5 C14.17 5 30.34 5 47 5 C45.57148766 8.57128086 44.10525515 11.89752272 42.375 15.3125 C41.70597656 16.63701172 41.70597656 16.63701172 41.0234375 17.98828125 C40.68570313 18.65214844 40.34796875 19.31601562 40 20 C39.34 20 38.68 20 38 20 C39.46471966 14.99554115 41.29041281 11.74177759 44 7 C28.49 6.67 12.98 6.34 -3 6 C-3 4.68 -3 3.36 -3 2 C-2.01 1.34 -1.02 0.68 0 0 Z " fill="#F4E4EB" transform="translate(69,238)"/>
<path d="M0 0 C3.09508668 2.65969222 4.67965755 5.85481275 6.5625 9.4375 C7.16191406 10.57058594 7.76132812 11.70367187 8.37890625 12.87109375 C9.60553922 15.23864316 10.81934723 17.60932499 12 20 C10.328125 20.6796875 10.328125 20.6796875 8 21 C5.421875 19.8203125 5.421875 19.8203125 2.75 18.125 C1.85796875 17.57070312 0.9659375 17.01640625 0.046875 16.4453125 C-0.62859375 15.96835938 -1.3040625 15.49140625 -2 15 C-2 14.67 -2 14.34 -2 14 C-0.35 14 1.3 14 3 14 C2.86722656 13.40832031 2.73445313 12.81664062 2.59765625 12.20703125 C1.68994822 8.14553475 0.7908887 4.08625829 0 0 Z " fill="#F184AF" transform="translate(256,139)"/>
<path d="M0 0 C-0.9590625 0.4021875 -0.9590625 0.4021875 -1.9375 0.8125 C-4.33131686 1.88667752 -4.33131686 1.88667752 -5 5 C-7.5625 6.6875 -7.5625 6.6875 -10 8 C-6.18422037 9.20205614 -2.35364011 9.22194982 1.609375 9.31640625 C2.33618469 9.33718735 3.06299438 9.35796844 3.81182861 9.37937927 C6.12445991 9.44455512 8.43720093 9.5036104 10.75 9.5625 C12.32162575 9.60571566 13.89324056 9.64933092 15.46484375 9.69335938 C19.30978453 9.80020356 23.15483524 9.90156024 27 10 C27 10.33 27 10.66 27 11 C12.48 11 -2.04 11 -17 11 C-16.67 10.01 -16.34 9.02 -16 8 C-14.66666667 7.66666667 -13.33333333 7.33333333 -12 7 C-11.67 6.01 -11.34 5.02 -11 4 C-9.2578125 2.578125 -9.2578125 2.578125 -7.125 1.25 C-6.42632812 0.80140625 -5.72765625 0.3528125 -5.0078125 -0.109375 C-3 -1 -3 -1 0 0 Z " fill="#EB95B8" transform="translate(84,232)"/>
<path d="M0 0 C4.17318493 0.59310921 7.13031541 2.00783255 10.75390625 4.1328125 C11.85669922 4.77476562 12.95949219 5.41671875 14.09570312 6.078125 C15.25140951 6.76023468 16.40700815 7.44252696 17.5625 8.125 C18.67947266 8.77726563 19.79644531 9.42953125 20.94726562 10.1015625 C23.18634704 11.40996486 25.42286302 12.72276778 27.65673828 14.04003906 C29.92423708 15.36934244 32.19498492 16.68518762 34.47998047 17.98339844 C35.56811035 18.60504883 36.65624023 19.22669922 37.77734375 19.8671875 C38.75823975 20.4226123 39.73913574 20.97803711 40.74975586 21.55029297 C43 23 43 23 44 25 C39.95592234 23.75350732 36.40683788 22.26906252 32.734375 20.171875 C31.76113281 19.61886719 30.78789062 19.06585938 29.78515625 18.49609375 C28.28275391 17.63177734 28.28275391 17.63177734 26.75 16.75 C25.76386719 16.18925781 24.77773437 15.62851563 23.76171875 15.05078125 C18.1189678 11.83166246 12.52485177 8.54088431 6.96972656 5.17285156 C5.02152945 3.98020415 5.02152945 3.98020415 3 3 C3 2.34 3 1.68 3 1 C2.01 0.67 1.02 0.34 0 0 Z " fill="#F6E0EA" transform="translate(189,132)"/>
<path d="M0 0 C0.33 0 0.66 0 1 0 C1.10768094 12.71132024 1.12089545 25.32987825 0 38 C0.94875 37.484375 1.8975 36.96875 2.875 36.4375 C3.90625 35.963125 4.9375 35.48875 6 35 C6.66 35.33 7.32 35.66 8 36 C6.90554162 36.86657116 5.79902219 37.71792724 4.6875 38.5625 C3.76517578 39.27599609 3.76517578 39.27599609 2.82421875 40.00390625 C1.92123047 40.49697266 1.92123047 40.49697266 1 41 C0.01 40.67 -0.98 40.34 -2 40 C-1.88008171 36.07122996 -1.75576335 32.14262402 -1.62768555 28.21411133 C-1.56401523 26.23460818 -1.50364702 24.25499969 -1.44335938 22.27539062 C-1.19792682 14.81801687 -0.78859059 7.42049236 0 0 Z " fill="#E7D4DA" transform="translate(47,196)"/>
<path d="M0 0 C0.495 0.99 0.495 0.99 1 2 C-0.109375 4.4609375 -0.109375 4.4609375 -1.75 7.375 C-2.28109375 8.33148438 -2.8121875 9.28796875 -3.359375 10.2734375 C-4.78704196 12.64608402 -6.28977953 14.82616554 -8 17 C-11.24571356 16.62906131 -12.72211189 16.26562834 -15.125 13.96875 C-19.08802098 11.25494215 -22.13697468 11.5462051 -26.8125 11.75 C-27.60076172 11.76804687 -28.38902344 11.78609375 -29.20117188 11.8046875 C-31.13464261 11.85155952 -33.06748285 11.9232959 -35 12 C-35.33 11.01 -35.66 10.02 -36 9 C-34.68 7.68 -33.36 6.36 -32 5 C-32.33 6.65 -32.66 8.3 -33 10 C-31.91460937 9.94199219 -30.82921875 9.88398438 -29.7109375 9.82421875 C-28.26566824 9.77729442 -26.82035216 9.73179713 -25.375 9.6875 C-24.66214844 9.64560547 -23.94929688 9.60371094 -23.21484375 9.56054688 C-17.38791916 9.42690182 -15.17920796 11.01531974 -11 15 C-10.34 15 -9.68 15 -9 15 C-8.43410156 14.00097656 -7.86820313 13.00195312 -7.28515625 11.97265625 C-6.5443558 10.66922254 -5.80346575 9.36583975 -5.0625 8.0625 C-4.68931641 7.40314453 -4.31613281 6.74378906 -3.93164062 6.06445312 C-1.11328125 1.11328125 -1.11328125 1.11328125 0 0 Z " fill="#F2D9E3" transform="translate(139,253)"/>
<path d="M0 0 C0 2.64 0 5.28 0 8 C-0.33 7.34 -0.66 6.68 -1 6 C-1.86625 6.5259375 -1.86625 6.5259375 -2.75 7.0625 C-5 8 -5 8 -6.86328125 7.5078125 C-12.04306813 6.27678454 -18.29876206 8.87686029 -23 11 C-20.1029054 7.74246875 -17.75816089 6.27469911 -13.625 4.9375 C-9.3147963 3.48158339 -4.43757139 0 0 0 Z " fill="#EB7BA0" transform="translate(174,181)"/>
<path d="M0 0 C3.46892147 0.6459371 5.86949972 2.01618645 8.8125 3.9375 C9.76898438 4.55882812 10.72546875 5.18015625 11.7109375 5.8203125 C14.11569639 7.41396507 16.51677543 9.01237271 18.9140625 10.6171875 C19.58074951 11.06328369 20.24743652 11.50937988 20.93432617 11.96899414 C22.24894197 12.85069197 23.56167435 13.73520583 24.87231445 14.62280273 C27.834782 16.61727705 30.74260199 18.52233323 34 20 C34.99 19.01 35.98 18.02 37 17 C36.34 18.65 35.68 20.3 35 22 C25.63554578 20.33570126 16.00108867 11.73318904 8.1875 6.5625 C6.97682861 5.76428833 6.97682861 5.76428833 5.74169922 4.94995117 C4.99549316 4.45213135 4.24928711 3.95431152 3.48046875 3.44140625 C2.80910889 2.99482666 2.13774902 2.54824707 1.44604492 2.08813477 C0.9688501 1.72905029 0.49165527 1.36996582 0 1 C0 0.67 0 0.34 0 0 Z " fill="#F3E2E8" transform="translate(109,13)"/>
<path d="M0 0 C4.21985015 1.28291536 7.82670261 2.88254869 11.625 5.1171875 C12.66140625 5.72433594 13.6978125 6.33148438 14.765625 6.95703125 C16.36664063 7.90642578 16.36664063 7.90642578 18 8.875 C19.06734375 9.50019531 20.1346875 10.12539062 21.234375 10.76953125 C26.24919729 13.71979362 31.21249955 16.69197018 36 20 C35.01 20.495 35.01 20.495 34 21 C31.56640625 19.77734375 31.56640625 19.77734375 28.5625 17.9375 C24.56348255 15.52759092 20.56003706 13.19195415 16.4375 11 C10.7944313 7.94813631 5.25351017 4.6886348 0 1 C0 0.67 0 0.34 0 0 Z " fill="#F6DEE9" transform="translate(233,157)"/>
<path d="M0 0 C0.33 0.99 0.66 1.98 1 3 C-0.32 5.31 -1.64 7.62 -3 10 C4.92 10.66 12.84 11.32 21 12 C21 12.33 21 12.66 21 13 C12.09 13 3.18 13 -6 13 C-5.15071984 8.75359922 -4.67656891 7.07480937 -2.4375 3.6875 C-1.98246094 2.99011719 -1.52742187 2.29273438 -1.05859375 1.57421875 C-0.70925781 1.05472656 -0.35992187 0.53523438 0 0 Z " fill="#F5E1E8" transform="translate(175,30)"/>
<path d="M0 0 C-1.00417969 0.556875 -2.00835937 1.11375 -3.04296875 1.6875 C-4.42485976 2.45765083 -5.80634023 3.22853857 -7.1875 4 C-7.9091333 4.40283203 -8.6307666 4.80566406 -9.37426758 5.22070312 C-15.11928523 8.45120914 -20.69750086 11.88901211 -26.23046875 15.46875 C-28.90656222 16.94833905 -30.98895569 17.6036651 -34 18 C-29.49242491 13.02954434 -23.7153353 10.24516129 -17.91210938 7.05664062 C-16.03096584 6.01711187 -14.16330321 4.95630173 -12.296875 3.890625 C-11.14703125 3.24609375 -9.9971875 2.6015625 -8.8125 1.9375 C-7.76707031 1.34839844 -6.72164062 0.75929687 -5.64453125 0.15234375 C-3 -1 -3 -1 0 0 Z " fill="#F4E1E8" transform="translate(189,63)"/>
<path d="M0 0 C1.61265753 0.88045655 3.21484475 1.78010496 4.8125 2.6875 C5.70582031 3.18636719 6.59914062 3.68523437 7.51953125 4.19921875 C10.25444955 6.18472636 11.47072375 8.01765727 13 11 C12.01 11.495 12.01 11.495 11 12 C8.6875 10.9609375 8.6875 10.9609375 6 9.375 C5.113125 8.86710938 4.22625 8.35921875 3.3125 7.8359375 C0.6812131 5.74690905 -0.04579041 4.1770842 -1 1 C-0.67 0.67 -0.34 0.34 0 0 Z " fill="#F85D9E" transform="translate(241,141)"/>
<path d="M0 0 C1.32 0 2.64 0 4 0 C4.433125 0.474375 4.86625 0.94875 5.3125 1.4375 C7.88213625 3.81679282 10.61010321 3.68019842 14 4 C14 4.66 14 5.32 14 6 C15.32 5.34 16.64 4.68 18 4 C18.12375 5.670625 18.12375 5.670625 18.25 7.375 C18.57873787 11.05753944 18.57873787 11.05753944 21.0625 12.4375 C21.701875 12.623125 22.34125 12.80875 23 13 C18.65147998 12.60468 16.26152932 10.88266011 12.90234375 8.33203125 C10.34628344 6.54226418 7.63413443 5.27462876 4.796875 3.9921875 C2.83192789 2.90719496 1.50917509 1.64891352 0 0 Z M14 3 C16 4 16 4 16 4 Z " fill="#EB79A0" transform="translate(57,132)"/>
<path d="M0 0 C3.33262917 0.38087191 4.86859511 0.89159096 7.5 3.0625 C9.80245796 5.26849256 9.80245796 5.26849256 12.5 4.9375 C15 5 15 5 17.8125 7.375 C20 10 20 10 20 12 C20.969375 12.28875 21.93875 12.5775 22.9375 12.875 C26 14 26 14 27 16 C22.0680916 14.7354081 18.56048453 12.44776937 14.44921875 9.5859375 C11.13807003 7.44187628 7.65171445 5.80852724 4.06640625 4.17578125 C2 3 2 3 0 0 Z " fill="#EBABC1" transform="translate(30,116)"/>
<path d="M0 0 C0.99 0 1.98 0 3 0 C3 11.55 3 23.1 3 35 C2.67 35 2.34 35 2 35 C1.67 25.43 1.34 15.86 1 6 C-0.32 6.33 -1.64 6.66 -3 7 C-2.38722388 4.03824877 -1.74627478 2.61941217 0 0 Z " fill="#E2A8BC" transform="translate(92,28)"/>
<path d="M0 0 C-2.72571327 1.63084542 -5.45615252 3.25361139 -8.1875 4.875 C-8.95642578 5.33519531 -9.72535156 5.79539062 -10.51757812 6.26953125 C-14.26306993 8.4878912 -17.87015924 10.55993529 -22 12 C-20.625 10 -20.625 10 -19 8 C-18.34 8 -17.68 8 -17 8 C-17 7.34 -17 6.68 -17 6 C-17.66 5.67 -18.32 5.34 -19 5 C-18.34 5 -17.68 5 -17 5 C-16.67 4.01 -16.34 3.02 -16 2 C-15.01 2.66 -14.02 3.32 -13 4 C-11.96939453 3.44119141 -11.96939453 3.44119141 -10.91796875 2.87109375 C-10.01691406 2.39800781 -9.11585938 1.92492187 -8.1875 1.4375 C-7.29417969 0.96183594 -6.40085938 0.48617187 -5.48046875 -0.00390625 C-3 -1 -3 -1 0 0 Z " fill="#EEB5C9" transform="translate(145,88)"/>
<path d="M0 0 C0 2.31 0 4.62 0 7 C7.59 7 15.18 7 23 7 C23 7.33 23 7.66 23 8 C15.08 8 7.16 8 -1 8 C-1.33 6.35 -1.66 4.7 -2 3 C-6.95 3.33 -11.9 3.66 -17 4 C-13.90007858 1.93338572 -12.11052223 1.48645941 -8.5 0.875 C-7.06140625 0.62363281 -7.06140625 0.62363281 -5.59375 0.3671875 C-3 0 -3 0 0 0 Z " fill="#F45093" transform="translate(235,83)"/>
<path d="M0 0 C2.94438506 0.98146169 4.67454773 1.58692596 6.625 4.0625 C10.16460826 6.95007516 13.3306523 6.44055231 17.75 6.25 C18.54277344 6.23195313 19.33554688 6.21390625 20.15234375 6.1953125 C22.10208348 6.14833082 24.05119878 6.07659044 26 6 C26.33 6.99 26.66 7.98 27 9 C25.0625 12.1875 25.0625 12.1875 23 15 C22.67 14.34 22.34 13.68 22 13 C22.9375 10.875 22.9375 10.875 24 9 C22.91460937 8.98582031 21.82921875 8.97164062 20.7109375 8.95703125 C19.26558387 8.91010418 17.82027269 8.86185695 16.375 8.8125 C15.66214844 8.80669922 14.94929687 8.80089844 14.21484375 8.79492188 C8.46527151 8.55755421 6.19520126 6.85687858 2 3 C1.01 3 0.02 3 -1 3 C-0.67 2.01 -0.34 1.02 0 0 Z " fill="#F4E4E9" transform="translate(154,15)"/>
<path d="M0 0 C0.66 0.33 1.32 0.66 2 1 C-10.29744384 9.53989156 -10.29744384 9.53989156 -15 11 C-17.23046875 10.59765625 -17.23046875 10.59765625 -19 10 C-15.12164211 5.41648613 -12.83757628 4.70453507 -7 4 C-5.04574653 3.05086245 -5.04574653 3.05086245 -3.1875 1.875 C-2.135625 1.25625 -1.08375 0.6375 0 0 Z " fill="#EEBECF" transform="translate(205,51)"/>
<path d="M0 0 C0.33 0.66 0.66 1.32 1 2 C-0.21484375 4.13671875 -0.21484375 4.13671875 -1.9375 6.6875 C-4.60646967 10.84423875 -4.60646967 10.84423875 -4.875 15.75 C-5 19 -5 19 -6.7578125 20.76171875 C-8.78887018 22.27970437 -10.83536107 23.68092315 -13 25 C-12.03200694 22.39386484 -11.0331119 20.05326696 -9.5625 17.6875 C-8.25330125 15.43567815 -7.4554213 13.55996416 -6.625 11.125 C-5.09214094 6.81332157 -2.78556995 3.61371236 0 0 Z " fill="#D27393" transform="translate(88,35)"/>
<path d="M0 0 C0.66 0.33 1.32 0.66 2 1 C1.01 1.33 0.02 1.66 -1 2 C-1 3.32 -1 4.64 -1 6 C-2.98 6.33 -4.96 6.66 -7 7 C-7 7.66 -7 8.32 -7 9 C-9.64 9.33 -12.28 9.66 -15 10 C-12.60236223 7.35705936 -10.00790723 5.67473797 -6.9375 3.875 C-6.05964844 3.35679687 -5.18179688 2.83859375 -4.27734375 2.3046875 C-2.87204839 1.49959547 -1.44859331 0.72429666 0 0 Z " fill="#ECAFC4" transform="translate(99,221)"/>
<path d="M0 0 C-1.03898437 0.51949219 -2.07796875 1.03898438 -3.1484375 1.57421875 C-3.81987793 1.9101001 -4.49131836 2.24598145 -5.18310547 2.59204102 C-6.64775476 3.32403939 -8.11292717 4.05499198 -9.57861328 4.78491211 C-12.80521913 6.39320811 -16.02241788 8.01169865 -19.21875 9.6796875 C-20.0953125 10.13601562 -20.971875 10.59234375 -21.875 11.0625 C-23.01582031 11.66771484 -23.01582031 11.66771484 -24.1796875 12.28515625 C-24.78039062 12.52105469 -25.38109375 12.75695312 -26 13 C-26.66 12.67 -27.32 12.34 -28 12 C-22.63523154 8.34739169 -17.02662959 5.43162284 -11.1875 2.625 C-10.0574353 2.07005859 -10.0574353 2.07005859 -8.90454102 1.50390625 C-8.18709717 1.16488281 -7.46965332 0.82585937 -6.73046875 0.4765625 C-6.08489014 0.16799316 -5.43931152 -0.14057617 -4.77416992 -0.45849609 C-3 -1 -3 -1 0 0 Z " fill="#F4D9E5" transform="translate(269,182)"/>
<path d="M0 0 C0.33 0 0.66 0 1 0 C1.05454409 2.35448675 1.0939279 4.70767875 1.125 7.0625 C1.14820313 8.37347656 1.17140625 9.68445313 1.1953125 11.03515625 C0.99417522 15.11824299 0.27165462 18.14999053 -1 22 C-1.33 22 -1.66 22 -2 22 C-2.05807043 18.89591193 -2.09361914 15.7919636 -2.125 12.6875 C-2.14175781 11.80642578 -2.15851563 10.92535156 -2.17578125 10.01757812 C-2.18222656 9.17001953 -2.18867188 8.32246094 -2.1953125 7.44921875 C-2.20578613 6.66893311 -2.21625977 5.88864746 -2.22705078 5.0847168 C-2 3 -2 3 0 0 Z " fill="#FD61A6" transform="translate(193,219)"/>
<path d="M0 0 C0.515625 0.268125 1.03125 0.53625 1.5625 0.8125 C5.61692339 2.78773191 9.72073536 4.57357845 14 6 C15.28726685 7.48035688 16.57151986 8.96488598 17.79296875 10.5 C19.0937903 12.11655494 20.4941665 13.57342089 22 15 C17.28028566 13.38415969 13.42020371 10.82354623 9.3125 8.0625 C8.63638672 7.61970703 7.96027344 7.17691406 7.26367188 6.72070312 C6.61591797 6.28822266 5.96816406 5.85574219 5.30078125 5.41015625 C4.71466064 5.01965088 4.12854004 4.62914551 3.5246582 4.22680664 C2 3 2 3 0 0 Z " fill="#EEC6D4" transform="translate(145,253)"/>
<path d="M0 0 C-5.75 3 -5.75 3 -8 3 C-6.20814262 5.16909051 -5.31038279 5.93792344 -2.5 6.5 C0.32651151 7.0653023 1.27683364 7.73267585 3 10 C3 10.66 3 11.32 3 12 C4.32 12.66 5.64 13.32 7 14 C2.75470982 13.41792182 -0.19210423 11.95085318 -3.8125 9.6875 C-4.78832031 9.09324219 -5.76414062 8.49898437 -6.76953125 7.88671875 C-7.50558594 7.26410156 -8.24164063 6.64148438 -9 6 C-9 4.68 -9 3.36 -9 2 C-3.375 -1.125 -3.375 -1.125 0 0 Z " fill="#EEC7D4" transform="translate(23,102)"/>
<path d="M0 0 C-0.23046875 1.88671875 -0.23046875 1.88671875 -1 4 C-2.92578125 5.08203125 -2.92578125 5.08203125 -5.3125 5.8125 C-6.48232422 6.19341797 -6.48232422 6.19341797 -7.67578125 6.58203125 C-10.15528491 7.02792519 -11.63492369 6.79557487 -14 6 C-12.61447798 4.98576166 -11.21605712 3.98912998 -9.8125 3 C-9.03519531 2.443125 -8.25789062 1.88625 -7.45703125 1.3125 C-4.71663363 -0.151369 -3.05899163 -0.26080213 0 0 Z " fill="#F49FC2" transform="translate(189,79)"/>
<path d="M0 0 C1.72827926 1.57116296 2.90634146 2.79261323 3.875 4.9375 C4.94534336 7.24484011 4.94534336 7.24484011 7.625 8.9375 C10 11 10 11 10.3125 13.75 C10.1578125 14.86375 10.1578125 14.86375 10 16 C9.34 15.67 8.68 15.34 8 15 C8 14.34 8 13.68 8 13 C7.34 13 6.68 13 6 13 C4.4921875 10.91796875 4.4921875 10.91796875 2.875 8.1875 C2.33617187 7.29417969 1.79734375 6.40085938 1.2421875 5.48046875 C0 3 0 3 0 0 Z " fill="#C48197" transform="translate(31,151)"/>
<path d="M0 0 C2.01459133 1.66422762 2.97818776 2.94819593 4 5.375 C4 8 4 8 1.6875 10.75 C-1 13 -1 13 -3 14 C-4.32 13.34 -5.64 12.68 -7 12 C-4.03 10.02 -1.06 8.04 2 6 C1.34 5.01 0.68 4.02 0 3 C0 2.01 0 1.02 0 0 Z " fill="#E8B6C7" transform="translate(45,81)"/>
<path d="M0 0 C9.57 0 19.14 0 29 0 C28.67 0.99 28.34 1.98 28 3 C27.34 3 26.68 3 26 3 C26 2.34 26 1.68 26 1 C17.42 1 8.84 1 0 1 C0 0.67 0 0.34 0 0 Z " fill="#DFAFC0" transform="translate(190,43)"/>
<path d="M0 0 C0.33 0 0.66 0 1 0 C0.98839844 1.05960938 0.97679687 2.11921875 0.96484375 3.2109375 C0.95546524 4.59895658 0.94636511 5.98697755 0.9375 7.375 C0.92912109 8.07367188 0.92074219 8.77234375 0.91210938 9.4921875 C0.8164558 13.37295376 0.8164558 13.37295376 2 17 C0.5625 19.625 0.5625 19.625 -1 22 C-2.00953985 18.97138044 -2.01252048 17.63915009 -1.66015625 14.55078125 C-1.5199707 13.27944336 -1.5199707 13.27944336 -1.37695312 11.98242188 C-1.22129883 10.66081055 -1.22129883 10.66081055 -1.0625 9.3125 C-0.96259766 8.41982422 -0.86269531 7.52714844 -0.75976562 6.60742188 C-0.51234698 4.40421779 -0.25887721 2.20188219 0 0 Z " fill="#F44990" transform="translate(192,235)"/>
<path d="M0 0 C0.66 0.99 1.32 1.98 2 3 C-3.445 5.475 -3.445 5.475 -9 8 C-9 6.68 -9 5.36 -9 4 C-5.77208445 1.8480563 -4.71599191 1.79913557 -1 2 C-0.67 1.34 -0.34 0.68 0 0 Z " fill="#E66290" transform="translate(107,219)"/>
<path d="M0 0 C0.66 0 1.32 0 2 0 C2.33 0.99 2.66 1.98 3 3 C-1.40086567 6.12319499 -5.79459302 7.03603575 -11 8 C-8.2421875 5.0546875 -8.2421875 5.0546875 -6.0625 4.5625 C-3.24938516 3.79528686 -1.99611875 2.06265605 0 0 Z " fill="#EE588C" transform="translate(112,218)"/>
<path d="M0 0 C0.66 0.33 1.32 0.66 2 1 C1.01 1.33 0.02 1.66 -1 2 C-1.2475 2.639375 -1.495 3.27875 -1.75 3.9375 C-3 6 -3 6 -6.4375 7.25 C-10 8 -10 8 -13 8 C-8.81848127 4.90567614 -4.82921817 2.02153319 0 0 Z " fill="#EFCAD7" transform="translate(137,199)"/>
<path d="M0 0 C-0.33 1.65 -0.66 3.3 -1 5 C-3.60582371 5.93065133 -4.64198224 6.14917407 -7.25 5.0625 C-7.8275 4.711875 -8.405 4.36125 -9 4 C-3.375 0 -3.375 0 0 0 Z " fill="#ECACC1" transform="translate(110,216)"/>
<path d="M0 0 C0 0.66 0 1.32 0 2 C-1.98 2.33 -3.96 2.66 -6 3 C-6.33 3.99 -6.66 4.98 -7 6 C-10 8 -10 8 -12.1875 7.625 C-12.785625 7.41875 -13.38375 7.2125 -14 7 C-12.56542672 6.0165504 -11.12722594 5.03839079 -9.6875 4.0625 C-8.88699219 3.51722656 -8.08648437 2.97195312 -7.26171875 2.41015625 C-4.82325391 0.88980079 -2.90418447 0 0 0 Z " fill="#EDC9D6" transform="translate(124,208)"/>
<path d="M0 0 C1.98 0.99 3.96 1.98 6 3 C5.649375 3.5775 5.29875 4.155 4.9375 4.75 C3.85082593 7.35801776 4.06934867 8.39417629 5 11 C0.05973451 6.28429204 0.05973451 6.28429204 -0.125 2.3125 C-0.08375 1.549375 -0.0425 0.78625 0 0 Z " fill="#C8829A" transform="translate(19,127)"/>
<path d="M0 0 C0.99 0 1.98 0 3 0 C3 1.32 3 2.64 3 4 C3.639375 4.103125 4.27875 4.20625 4.9375 4.3125 C5.618125 4.539375 6.29875 4.76625 7 5 C7.33 5.99 7.66 6.98 8 8 C4.59687262 6.94124926 1.98646769 5.99097846 -1 4 C-0.67 2.68 -0.34 1.36 0 0 Z " fill="#EEC2D5" transform="translate(158,94)"/>
<path d="M0 0 C-1.95245185 1.19714555 -3.91214997 2.38248074 -5.875 3.5625 C-6.96554688 4.22378906 -8.05609375 4.88507813 -9.1796875 5.56640625 C-10.57574219 6.27603516 -10.57574219 6.27603516 -12 7 C-12.66 6.67 -13.32 6.34 -14 6 C-12.61326942 3.22653883 -10.86966354 2.70074287 -8.125 1.3125 C-7.24070313 0.85488281 -6.35640625 0.39726563 -5.4453125 -0.07421875 C-3 -1 -3 -1 0 0 Z " fill="#F1DDE4" transform="translate(145,88)"/>
<path d="M0 0 C1.8125 0.125 1.8125 0.125 4 1 C5.8125 3.9375 5.8125 3.9375 7 7 C6.67 7.66 6.34 8.32 6 9 C5.38125 8.030625 4.7625 7.06125 4.125 6.0625 C2.34321154 2.97164638 2.34321154 2.97164638 0 2 C-0.33 3.65 -0.66 5.3 -1 7 C-1.625 5.1875 -1.625 5.1875 -2 3 C-1.34 2.01 -0.68 1.02 0 0 Z " fill="#F0E1E6" transform="translate(55,49)"/>
<path d="M0 0 C0.66 0.66 1.32 1.32 2 2 C1.01 3.98 0.02 5.96 -1 8 C-1.99 7.67 -2.98 7.34 -4 7 C-4.33 6.01 -4.66 5.02 -5 4 C-4.34 4 -3.68 4 -3 4 C-3 3.34 -3 2.68 -3 2 C-2.01 2 -1.02 2 0 2 C0 1.34 0 0.68 0 0 Z " fill="#F93D89" transform="translate(230,226)"/>
<path d="M0 0 C5.28 0 10.56 0 16 0 C15.34 1.65 14.68 3.3 14 5 C13.01 4.34 12.02 3.68 11 3 C11.33 2.67 11.66 2.34 12 2 C8.04 1.67 4.08 1.34 0 1 C0 0.67 0 0.34 0 0 Z " fill="#E7729A" transform="translate(163,23)"/>
<path d="M0 0 C1.5 1.25 1.5 1.25 3 3 C3 4.32 3 5.64 3 7 C1.68 7.33 0.36 7.66 -1 8 C-0.67 7.01 -0.34 6.02 0 5 C-0.66 4.67 -1.32 4.34 -2 4 C-2 3.34 -2 2.68 -2 2 C-1.34 2 -0.68 2 0 2 C0 1.34 0 0.68 0 0 Z " fill="#F85395" transform="translate(242,211)"/>
<path d="M0 0 C0.99 0.33 1.98 0.66 3 1 C-3.75 5 -3.75 5 -6 5 C-6.33 5.99 -6.66 6.98 -7 8 C-8.32 7.67 -9.64 7.34 -11 7 C-9.23754778 5.8000962 -7.46473019 4.61540483 -5.6875 3.4375 C-4.70136719 2.77621094 -3.71523437 2.11492187 -2.69921875 1.43359375 C-1.80847656 0.96050781 -0.91773438 0.48742187 0 0 Z " fill="#F4D8E4" transform="translate(172,86)"/>
<path d="M0 0 C0.99 0.33 1.98 0.66 3 1 C3.33 2.65 3.66 4.3 4 6 C4.99 6.33 5.98 6.66 7 7 C5.68 7.33 4.36 7.66 3 8 C2.54625 7.21625 2.0925 6.4325 1.625 5.625 C0.11571258 2.96301969 0.11571258 2.96301969 -2 1 C-1.34 0.67 -0.68 0.34 0 0 Z " fill="#F9438F" transform="translate(251,145)"/>
<path d="M0 0 C5.37721374 0.61453871 8.27073147 3.27073147 12 7 C7.0682659 6.55166054 3.6807076 4.13973905 0 1 C0 0.67 0 0.34 0 0 Z " fill="#ECC0CF" transform="translate(30,116)"/>
<path d="M0 0 C4.75 0.875 4.75 0.875 7 2 C7 2.66 7 3.32 7 4 C9.475 4.99 9.475 4.99 12 6 C11.01 6.495 11.01 6.495 10 7 C7.6171875 5.8203125 7.6171875 5.8203125 4.875 4.125 C3.96492187 3.57070312 3.05484375 3.01640625 2.1171875 2.4453125 C1.41851562 1.96835938 0.71984375 1.49140625 0 1 C0 0.67 0 0.34 0 0 Z " fill="#F1CCDC" transform="translate(242,146)"/>
<path d="M0 0 C5.75 1.875 5.75 1.875 8 3 C8 3.66 8 4.32 8 5 C9.32 5.66 10.64 6.32 12 7 C7.0682659 6.55166054 3.6807076 4.13973905 0 1 C0 0.67 0 0.34 0 0 Z " fill="#EECBD7" transform="translate(68,138)"/>
<path d="M0 0 C2.97 0.495 2.97 0.495 6 1 C6 1.99 6 2.98 6 4 C4.02 4.33 2.04 4.66 0 5 C0 3.35 0 1.7 0 0 Z " fill="#F199BF" transform="translate(265,177)"/>
<path d="M0 0 C3.8665284 3.222107 4.88059018 6.14922412 6 11 C3.66475218 8.74259377 1.81294927 6.7194239 0 4 C0 2.68 0 1.36 0 0 Z " fill="#F4D3E0" transform="translate(250,128)"/>
<path d="M0 0 C-1.1858237 3.37503669 -2.27573689 5.64722731 -5 8 C-4.34 6.02 -3.68 4.04 -3 2 C-3.99 1.34 -4.98 0.68 -6 0 C-3.50907189 -1.24546405 -2.58919267 -0.7767578 0 0 Z " fill="#F0D9E1" transform="translate(181,22)"/>
<path d="M0 0 C0 0.66 0 1.32 0 2 C0.66 2.33 1.32 2.66 2 3 C-0.31 3.33 -2.62 3.66 -5 4 C-5.33 2.68 -5.66 1.36 -6 0 C-3 -1 -3 -1 0 0 Z " fill="#F589B5" transform="translate(143,250)"/>
<path d="M0 0 C2.61885488 2.36944013 4.41866551 4.83733102 6 8 C5.67 8.99 5.34 9.98 5 11 C4.67 9.68 4.34 8.36 4 7 C3.34 7 2.68 7 2 7 C0 4 0 4 0 0 Z " fill="#F3D4E0" transform="translate(256,139)"/>
<path d="M0 0 C0.66 0.33 1.32 0.66 2 1 C1.34 2.98 0.68 4.96 0 7 C-1.5 5.6875 -1.5 5.6875 -3 4 C-3 3.01 -3 2.02 -3 1 C-2.01 0.67 -1.02 0.34 0 0 Z " fill="#C43163" transform="translate(42,67)"/>
<path d="M0 0 C-0.66 1.65 -1.32 3.3 -2 5 C-3.65 4.67 -5.3 4.34 -7 4 C-2.25 0 -2.25 0 0 0 Z " fill="#E46E95" transform="translate(143,198)"/>
<path d="M0 0 C0 1.65 0 3.3 0 5 C-1.65 5.33 -3.3 5.66 -5 6 C-4.6875 4.125 -4.6875 4.125 -4 2 C-1 0 -1 0 0 0 Z " fill="#D7809D" transform="translate(94,29)"/>
<path d="M0 0 C1.75 0.8125 1.75 0.8125 2.75 2.8125 C1.1 2.4825 -0.55 2.1525 -2.25 1.8125 C-2.58 2.4725 -2.91 3.1325 -3.25 3.8125 C-4.57 3.4825 -5.89 3.1525 -7.25 2.8125 C-2.85714286 -0.23809524 -2.85714286 -0.23809524 0 0 Z " fill="#EA6894" transform="translate(150.25,194.1875)"/>
<path d="M0 0 C2.475 0.495 2.475 0.495 5 1 C4.67 1.99 4.34 2.98 4 4 C2.68 4 1.36 4 0 4 C0 2.68 0 1.36 0 0 Z " fill="#A2214C" transform="translate(120,187)"/>
<path d="M0 0 C4.83256305 0.41421969 6.82679218 2.46413986 10 6 C6.40992874 4.66654496 3.20429093 3.1056769 0 1 C0 0.67 0 0.34 0 0 Z " fill="#F3D3E0" transform="translate(254,153)"/>
<path d="M0 0 C0.99 0.33 1.98 0.66 3 1 C0.1875 3.0625 0.1875 3.0625 -3 5 C-3.99 4.67 -4.98 4.34 -6 4 C-3.1875 1.9375 -3.1875 1.9375 0 0 Z " fill="#F4DBE4" transform="translate(213,46)"/>
<path d="M0 0 C0.33 0.66 0.66 1.32 1 2 C0.22265625 3.7265625 0.22265625 3.7265625 -0.9375 5.625 C-1.618125 6.73875 -2.29875 7.8525 -3 9 C-3.33 8.01 -3.66 7.02 -4 6 C-2.0625 2.8125 -2.0625 2.8125 0 0 Z " fill="#F3E1E7" transform="translate(150,21)"/>
<path d="M0 0 C0.99 0.33 1.98 0.66 3 1 C2.01 1.33 1.02 1.66 0 2 C0 3.32 0 4.64 0 6 C-0.99 6 -1.98 6 -3 6 C-2.625 3.5625 -2.625 3.5625 -2 1 C-1.34 0.67 -0.68 0.34 0 0 Z " fill="#E68EAB" transform="translate(154,17)"/>
</svg>
